<svg width="640" height="640" viewBox="0 0 640 640" fill="none" xmlns="http://www.w3.org/2000/svg">
<circle cx="320" cy="320" r="320" fill="white"/>
<path fill-rule="evenodd" clip-rule="evenodd" d="M250.739 48.7731C149.471 75.2154 74.3829 150.962 48.7885 252.491C45.6158 265.076 43.7008 276.019 44.5333 276.808C46.8322 278.985 81.9073 266.342 104.825 255.073C176.186 219.984 230.439 162.641 262.499 88.4188C270.141 70.7236 277.309 49.9858 277.309 45.5669C277.309 42.9305 269.517 43.8691 250.739 48.7731ZM361.942 44.7624C361.942 49.617 376.248 87.1509 384.582 104.154C417.295 170.911 468.677 222.616 534.609 255.134C554.545 264.965 593.897 279.551 595.676 277.768C596.184 277.26 595.062 269.92 593.182 261.455C580.905 206.163 556.635 161.939 516.523 121.772C478.541 83.7396 434.404 59.2711 381.623 46.9886C368.85 44.017 361.942 43.2342 361.942 44.7624ZM314.28 124.592C301.89 153.361 271.676 197.866 244.797 226.942C216.685 257.35 171.043 291.323 134.214 309.249C123.166 314.626 114.156 319.469 114.19 320.011C114.223 320.553 124.137 325.863 136.221 331.81C209.338 367.797 272.7 431.658 310.149 507.113L320.356 527.677L328.018 511.098C362.278 436.974 431.547 366.55 505.698 330.452C516.382 325.252 525.162 320.392 525.211 319.65C525.26 318.911 523.31 317.716 520.873 316.998C518.436 316.278 506.702 310.426 494.794 303.994C424.898 266.235 365.282 204.765 331.045 135.151C325.044 122.952 319.942 112.968 319.71 112.968C319.476 112.968 317.033 118.199 314.28 124.592ZM44.1849 363.22C42.4923 365.961 52.784 404.91 60.1056 423.477C90.465 500.464 152.404 559.161 230.76 585.201C252.986 592.588 274.739 597.328 276.825 595.24C279.022 593.037 265.583 555.764 254.785 534.113C213.747 451.812 144.187 393.129 53.4768 364.283C48.9027 362.827 44.7203 362.35 44.1849 363.22ZM577.458 367.132C482.666 400.215 412.843 465.637 375.038 556.787C368.659 572.168 361.709 594.522 362.928 595.741C364.425 597.243 387.806 591.988 407.21 585.787C444.444 573.891 481.106 552.242 510.166 524.991C550.866 486.822 576.195 443.998 590.366 389.384C596.406 366.107 597.142 361.347 594.68 361.528C593.867 361.587 586.119 364.109 577.458 367.132Z" fill="#005AF9"/>
</svg>
